<svg width="272" height="345" viewBox="0 0 272 345" fill="none" xmlns="http://www.w3.org/2000/svg">
<g opacity="0.7">
<path d="M150.145 111.647L150.131 117.318L78.3984 164.383L78.4128 158.712L150.145 111.647Z" fill="#0060A9"/>
</g>
<path d="M78.4129 158.714L78.3986 164.385L0 113.009L0.014314 107.338L78.4129 158.714Z" fill="#0060A9"/>
<g opacity="0.25">
<path d="M150.139 111.649L78.4064 158.714L0.0078125 107.338L71.7401 60.2732L150.139 111.649Z" fill="url(#paint0_linear_645_374)"/>
</g>
<path d="M150.145 128.022L150.131 133.693L78.3984 180.758L78.4128 175.087L150.145 128.022Z" fill="#0060A9"/>
<path d="M78.4129 175.087L78.3986 180.758L0 129.385L0.014314 123.713L78.4129 175.087Z" fill="#0060A9"/>
<g opacity="0.25">
<path d="M150.139 128.022L78.4064 175.087L0.0078125 123.713L71.7401 76.6467L150.139 128.022Z" fill="#9AC0DC"/>
</g>
<g opacity="0.6">
<path d="M74.0625 32.9458V80.229L132.923 118.374V70.3412L74.0625 32.9458Z" fill="url(#paint1_linear_645_374)"/>
<path d="M106.445 135.474L86.4766 122.413V109.12L106.445 96.4717V135.474Z" fill="url(#paint2_linear_645_374)"/>
<path d="M69.4531 139.657L90.9681 125.351V106.57L84.8359 110.939L69.4531 101.164V139.657Z" fill="url(#paint3_linear_645_374)"/>
<path d="M109.252 58.9583L84.8359 101.396V110.938L106.448 96.9823V135.473L132.926 118.376V70.3427L109.252 58.9583Z" fill="url(#paint4_linear_645_374)"/>
<path d="M50.3923 22.0593L109.253 58.9569L84.8374 101.395L25.9766 63.9994L50.3923 22.0593Z" fill="url(#paint5_linear_645_374)"/>
<path d="M109.251 58.9569L132.926 70.3413L74.0647 32.946L50.3906 22.0593L109.251 58.9569Z" fill="url(#paint6_linear_645_374)"/>
<path d="M109.252 58.9583L84.8359 101.396V106.051L109.733 63.1393L132.926 73.853V70.3427L109.252 58.9583Z" fill="url(#paint7_linear_645_374)"/>
<path d="M114.281 95.813L114.294 117.769L126.142 110.048L126.128 88.0908L114.281 95.813Z" fill="url(#paint8_linear_645_374)"/>
<path d="M123.781 89.6197V108.793L126.141 110.048V88.0908L123.781 89.6197Z" fill="url(#paint9_linear_645_374)"/>
<path d="M123.782 108.792L114.281 114.978V117.768L126.142 110.047L123.782 108.792Z" fill="url(#paint10_linear_645_374)"/>
<path d="M71.6328 116.058L71.6471 138.015L83.4949 130.293L83.4806 108.337L71.6328 116.058Z" fill="url(#paint11_linear_645_374)"/>
<path d="M81.1094 109.866V129.038L83.4689 130.293V108.337L81.1094 109.866Z" fill="url(#paint12_linear_645_374)"/>
<path d="M81.1354 129.039L71.6328 135.227V138.017L83.4949 130.295L81.1354 129.039Z" fill="url(#paint13_linear_645_374)"/>
<path d="M69.4547 91.6223L25.9766 64V111.283L69.4547 139.655V101.163L84.8374 110.937V101.395L69.4547 91.6223Z" fill="url(#paint14_linear_645_374)"/>
<path d="M25.9766 64L84.8374 101.395V106.355L25.9766 68.9601V64Z" fill="url(#paint15_linear_645_374)"/>
<path d="M43.6277 88.7238L43.6134 110.68L31.7656 102.959L31.7799 81.0017L43.6277 88.7238Z" fill="url(#paint16_linear_645_374)"/>
<path d="M34.1252 82.5306V101.703L31.7656 102.959V81.0017L34.1252 82.5306Z" fill="url(#paint17_linear_645_374)"/>
<path d="M34.1252 101.703L43.6277 107.889V110.679L31.7656 102.958L34.1252 101.703Z" fill="url(#paint18_linear_645_374)"/>
<path d="M64.1341 100.221L64.1198 122.179L52.2734 114.456L52.2863 92.5005L64.1341 100.221Z" fill="url(#paint19_linear_645_374)"/>
<path d="M54.633 94.0294V113.201L52.2734 114.456V92.5005L54.633 94.0294Z" fill="url(#paint20_linear_645_374)"/>
<path d="M54.633 113.201L64.1341 119.39V122.179L52.2734 114.457L54.633 113.201Z" fill="url(#paint21_linear_645_374)"/>
</g>
<path opacity="0.5" d="M22.9801 81.8729L13.5391 0L21.5039 46.1115L22.9801 81.8729Z" fill="#0061A9"/>
<g opacity="0.6">
<path d="M106.445 135.474L86.4766 122.413V109.12L106.445 96.4717V135.474Z" stroke="white" stroke-width="3" stroke-miterlimit="10"/>
<path d="M69.4531 139.657L90.9681 125.351V106.57L84.8359 110.939L69.4531 101.164V139.657Z" stroke="white" stroke-width="3" stroke-miterlimit="10"/>
<path d="M109.252 58.9583L84.8359 101.396V110.938L106.448 96.9823V135.473L132.926 118.376V70.3427L109.252 58.9583Z" stroke="white" stroke-width="3" stroke-miterlimit="10"/>
<path d="M50.3923 22.0593L109.253 58.9569L84.8374 101.395L25.9766 63.9994L50.3923 22.0593Z" stroke="white" stroke-width="3" stroke-miterlimit="10"/>
<path d="M109.251 58.9569L132.926 70.3413L74.0647 32.946L50.3906 22.0593L109.251 58.9569Z" stroke="#FCFCFC" stroke-width="3" stroke-miterlimit="10"/>
<path d="M109.252 58.9583L84.8359 101.396V106.051L109.733 63.1393L132.926 73.853V70.3427L109.252 58.9583Z" stroke="#FCFCFC" stroke-width="3" stroke-miterlimit="10"/>
<path d="M114.281 95.813L114.294 117.769L126.142 110.048L126.128 88.0908L114.281 95.813Z" stroke="white" stroke-width="3" stroke-miterlimit="10"/>
<path d="M123.781 89.6197V108.793L126.141 110.048V88.0908L123.781 89.6197Z" stroke="white" stroke-width="3" stroke-miterlimit="10"/>
<path d="M123.782 108.792L114.281 114.978V117.768L126.142 110.047L123.782 108.792Z" stroke="white" stroke-width="3" stroke-miterlimit="10"/>
<path d="M71.6328 116.058L71.6471 138.015L83.4949 130.293L83.4806 108.337L71.6328 116.058Z" stroke="white" stroke-width="3" stroke-miterlimit="10"/>
<path d="M81.1094 109.866V129.038L83.4689 130.293V108.337L81.1094 109.866Z" stroke="white" stroke-width="3" stroke-miterlimit="10"/>
<path d="M81.1354 129.039L71.6328 135.227V138.017L83.4949 130.295L81.1354 129.039Z" stroke="white" stroke-width="3" stroke-miterlimit="10"/>
<path d="M69.4547 91.6223L25.9766 64V111.283L69.4547 139.655V101.163L84.8374 110.937V101.395L69.4547 91.6223Z" stroke="#FCFCFC" stroke-width="3" stroke-miterlimit="10"/>
<path d="M25.9766 64L84.8374 101.395V106.355L25.9766 68.9601V64Z" stroke="#FCFCFC" stroke-width="3" stroke-miterlimit="10"/>
<path d="M43.6277 88.7238L43.6134 110.68L31.7656 102.959L31.7799 81.0017L43.6277 88.7238Z" stroke="white" stroke-width="3" stroke-miterlimit="10"/>
<path d="M34.1252 82.5306V101.703L31.7656 102.959V81.0017L34.1252 82.5306Z" stroke="white" stroke-width="3" stroke-miterlimit="10"/>
<path d="M34.1252 101.703L43.6277 107.889V110.679L31.7656 102.958L34.1252 101.703Z" stroke="white" stroke-width="3" stroke-miterlimit="10"/>
<path d="M64.1341 100.221L64.1198 122.179L52.2734 114.456L52.2863 92.5005L64.1341 100.221Z" stroke="white" stroke-width="3" stroke-miterlimit="10"/>
<path d="M54.633 94.0294V113.201L52.2734 114.456V92.5005L54.633 94.0294Z" stroke="white" stroke-width="3" stroke-miterlimit="10"/>
<path d="M54.633 113.201L64.1341 119.39V122.179L52.2734 114.457L54.633 113.201Z" stroke="white" stroke-width="3" stroke-miterlimit="10"/>
</g>
<path d="M169.125 67.2964L202.105 45.7882V13.9041L169.125 35.4123V67.2964Z" fill="#9FFFAE"/>
<path d="M174.179 39.9669L192.207 28.4628C192.77 28.104 193.231 27.2895 193.231 26.6543C193.231 26.0191 192.77 25.7929 192.207 26.1533L174.179 37.6573C173.616 38.0161 173.156 38.8307 173.156 39.4658C173.156 40.101 173.616 40.3273 174.179 39.9669Z" fill="#F6FAFB"/>
<path d="M174.179 45.5098L192.207 34.0058C192.77 33.647 193.231 32.8325 193.231 32.1973C193.231 31.5621 192.77 31.3375 192.207 31.6963L174.179 43.2003C173.616 43.5591 173.156 44.3737 173.156 45.0088C173.156 45.644 173.616 45.8686 174.179 45.5098Z" fill="#F6FAFB"/>
<path d="M174.179 51.0533L192.207 39.5493C192.77 39.1905 193.231 38.3759 193.231 37.7408C193.231 37.1056 192.77 36.8809 192.207 37.2397L174.179 48.7438C173.616 49.1042 173.156 49.9171 173.156 50.5523C173.156 51.1874 173.616 51.4137 174.179 51.0533Z" fill="#F6FAFB"/>
<path d="M181.093 52.1848L192.206 45.093C192.769 44.7342 193.23 43.9196 193.23 43.2845C193.23 42.6493 192.769 42.4246 192.206 42.7834L181.093 49.8753C180.53 50.2341 180.07 51.047 180.07 51.6822C180.07 52.3173 180.53 52.5436 181.093 52.1848Z" fill="#F6FAFB"/>
<path d="M127.523 93.9935L160.504 72.4852V40.6011L127.523 62.1093V93.9935Z" fill="#0060A9"/>
<path opacity="0.3" d="M151.008 68.195L152.982 66.936V62.9893L151.008 64.2483V68.195Z" fill="#F6FAFB"/>
<path d="M151.008 74.118L152.982 72.8574V68.9106L151.008 70.1697V74.118Z" fill="#F6FAFB"/>
<path d="M147.664 70.3176L149.637 69.0585V65.1118L147.664 66.3708V70.3176Z" fill="#F6FAFB"/>
<path d="M147.664 76.2411L149.637 74.9821V71.0354L147.664 72.2944V76.2411Z" fill="#F6FAFB"/>
<path d="M144.352 66.5177L146.325 65.2586V61.3103L144.352 62.5709V66.5177Z" fill="#F6FAFB"/>
<path opacity="0.3" d="M144.352 72.4423L146.325 71.1833V67.2366L144.352 68.4956V72.4423Z" fill="#F6FAFB"/>
<path opacity="0.3" d="M144.352 78.3632L146.325 77.1042V73.1575L144.352 74.4165V78.3632Z" fill="#F6FAFB"/>
<path d="M141.016 68.6414L142.989 67.3824V63.4341L141.016 64.6931V68.6414Z" fill="#F6FAFB"/>
<path d="M141.016 74.5654L142.989 73.3064V69.3596L141.016 70.6186V74.5654Z" fill="#F6FAFB"/>
<path d="M141.016 80.4882L142.989 79.2292V75.2825L141.016 76.5415V80.4882Z" fill="#F6FAFB"/>
<path opacity="0.3" d="M137.703 64.8412L139.678 63.5822V59.6355L137.703 60.8945V64.8412Z" fill="#F6FAFB"/>
<path opacity="0.3" d="M137.703 70.7645L139.678 69.5055V65.5571L137.703 66.8161V70.7645Z" fill="#F6FAFB"/>
<path opacity="0.3" d="M137.703 76.6879L139.678 75.4289V71.4822L137.703 72.7412V76.6879Z" fill="#F6FAFB"/>
<path d="M137.703 82.6115L139.678 81.3525V77.4058L137.703 78.6648V82.6115Z" fill="#F6FAFB"/>
<path d="M134.367 66.9633L136.34 65.7043V61.7576L134.367 63.0166V66.9633Z" fill="#F6FAFB"/>
<path d="M134.367 72.889L136.34 71.6284V67.6816L134.367 68.9407V72.889Z" fill="#F6FAFB"/>
<path opacity="0.3" d="M134.367 78.8126L136.34 77.5536V73.6052L134.367 74.8658V78.8126Z" fill="#F6FAFB"/>
<path d="M134.367 84.735L136.34 83.476V79.5293L134.367 80.7883V84.735Z" fill="#F6FAFB"/>
<g opacity="0.6">
<path d="M165.047 101.421V122.913L191.802 140.253V118.419L165.047 101.421Z" fill="url(#paint22_linear_645_374)"/>
<path d="M179.765 148.027L170.688 142.089V136.048L179.765 130.297V148.027Z" fill="url(#paint23_linear_645_374)"/>
<path d="M162.953 149.926L172.733 143.423V134.886L169.947 136.872L162.953 132.429V149.926Z" fill="url(#paint24_linear_645_374)"/>
<path d="M181.035 113.244L169.938 132.535V136.873L179.761 130.53V148.026L191.796 140.254V118.419L181.035 113.244Z" fill="url(#paint25_linear_645_374)"/>
<path d="M154.286 96.4724L181.042 113.244L169.944 132.534L143.188 115.537L154.286 96.4724Z" fill="url(#paint26_linear_645_374)"/>
<path d="M181.044 113.244L191.805 118.419L165.05 101.421L154.289 96.4724L181.044 113.244Z" fill="url(#paint27_linear_645_374)"/>
<path d="M181.035 113.244L169.938 132.535V134.651L181.254 115.145L191.796 120.016V118.419L181.035 113.244Z" fill="url(#paint28_linear_645_374)"/>
<path d="M183.32 129.998L183.327 139.978L188.712 136.469L188.707 126.488L183.32 129.998Z" fill="url(#paint29_linear_645_374)"/>
<path d="M187.656 127.183V135.897L188.729 136.469V126.488L187.656 127.183Z" fill="url(#paint30_linear_645_374)"/>
<path d="M187.64 135.898L183.32 138.712V139.979L188.712 136.47L187.64 135.898Z" fill="url(#paint31_linear_645_374)"/>
<path d="M163.93 139.199L163.937 149.18L169.322 145.67L169.315 135.69L163.93 139.199Z" fill="url(#paint32_linear_645_374)"/>
<path d="M168.258 136.385V145.099L169.33 145.67V135.69L168.258 136.385Z" fill="url(#paint33_linear_645_374)"/>
<path d="M168.249 145.1L163.93 147.913V149.181L169.322 145.671L168.249 145.1Z" fill="url(#paint34_linear_645_374)"/>
<path d="M162.95 128.091L143.188 115.536V137.028L162.95 149.926V132.429L169.944 136.872V132.534L162.95 128.091Z" fill="url(#paint35_linear_645_374)"/>
<path d="M143.188 115.536L169.944 132.534V134.788L143.188 117.791V115.536Z" fill="url(#paint36_linear_645_374)"/>
<path d="M151.197 126.776L151.191 136.756L145.805 133.247L145.812 123.266L151.197 126.776Z" fill="url(#paint37_linear_645_374)"/>
<path d="M146.877 123.961V132.675L145.805 133.247V123.266L146.877 123.961Z" fill="url(#paint38_linear_645_374)"/>
<path d="M146.877 132.674L151.197 135.488V136.755L145.805 133.246L146.877 132.674Z" fill="url(#paint39_linear_645_374)"/>
<path d="M160.533 132.002L160.527 141.982L155.141 138.472L155.148 128.492L160.533 132.002Z" fill="url(#paint40_linear_645_374)"/>
<path d="M156.214 129.187V137.901L155.141 138.472V128.492L156.214 129.187Z" fill="url(#paint41_linear_645_374)"/>
<path d="M156.214 137.902L160.533 140.715V141.982L155.141 138.472L156.214 137.902Z" fill="url(#paint42_linear_645_374)"/>
</g>
<g opacity="0.6">
<path d="M179.765 148.027L170.688 142.089V136.048L179.765 130.297V148.027Z" stroke="white" stroke-width="2" stroke-miterlimit="10"/>
<path d="M162.953 149.926L172.733 143.423V134.886L169.947 136.872L162.953 132.429V149.926Z" stroke="white" stroke-width="2" stroke-miterlimit="10"/>
<path d="M181.035 113.244L169.938 132.535V136.873L179.761 130.53V148.026L191.796 140.254V118.419L181.035 113.244Z" stroke="white" stroke-width="2" stroke-miterlimit="10"/>
<path d="M154.286 96.4724L181.042 113.244L169.944 132.534L143.188 115.537L154.286 96.4724Z" stroke="white" stroke-width="2" stroke-miterlimit="10"/>
<path d="M181.044 113.244L191.805 118.419L165.05 101.421L154.289 96.4724L181.044 113.244Z" stroke="white" stroke-width="2" stroke-miterlimit="10"/>
<path d="M181.035 113.244L169.938 132.535V134.651L181.254 115.145L191.796 120.016V118.419L181.035 113.244Z" stroke="white" stroke-width="2" stroke-miterlimit="10"/>
<path d="M183.32 129.998L183.327 139.978L188.712 136.469L188.707 126.488L183.32 129.998Z" stroke="white" stroke-width="2" stroke-miterlimit="10"/>
<path d="M187.656 127.183V135.897L188.729 136.469V126.488L187.656 127.183Z" stroke="white" stroke-width="2" stroke-miterlimit="10"/>
<path d="M187.64 135.898L183.32 138.712V139.979L188.712 136.47L187.64 135.898Z" stroke="white" stroke-width="2" stroke-miterlimit="10"/>
<path d="M163.93 139.199L163.937 149.18L169.322 145.67L169.315 135.69L163.93 139.199Z" stroke="white" stroke-width="2" stroke-miterlimit="10"/>
<path d="M168.258 136.385V145.099L169.33 145.67V135.69L168.258 136.385Z" stroke="white" stroke-width="2" stroke-miterlimit="10"/>
<path d="M168.249 145.1L163.93 147.913V149.181L169.322 145.671L168.249 145.1Z" stroke="white" stroke-width="2" stroke-miterlimit="10"/>
<path d="M162.95 128.091L143.188 115.536V137.028L162.95 149.926V132.429L169.944 136.872V132.534L162.95 128.091Z" stroke="white" stroke-width="2" stroke-miterlimit="10"/>
<path d="M143.188 115.536L169.944 132.534V134.788L143.188 117.791V115.536Z" stroke="white" stroke-width="2" stroke-miterlimit="10"/>
<path d="M151.197 126.776L151.191 136.756L145.805 133.247L145.812 123.266L151.197 126.776Z" stroke="white" stroke-width="2" stroke-miterlimit="10"/>
<path d="M146.877 123.961V132.675L145.805 133.247V123.266L146.877 123.961Z" stroke="white" stroke-width="2" stroke-miterlimit="10"/>
<path d="M146.877 132.674L151.197 135.488V136.755L145.805 133.246L146.877 132.674Z" stroke="white" stroke-width="2" stroke-miterlimit="10"/>
<path d="M160.533 132.002L160.527 141.982L155.141 138.472L155.148 128.492L160.533 132.002Z" stroke="white" stroke-width="2" stroke-miterlimit="10"/>
<path d="M156.214 129.187V137.901L155.141 138.472V128.492L156.214 129.187Z" stroke="white" stroke-width="2" stroke-miterlimit="10"/>
<path d="M156.214 137.902L160.533 140.715V141.982L155.141 138.472L156.214 137.902Z" stroke="white" stroke-width="2" stroke-miterlimit="10"/>
</g>
<path d="M162.96 149.926L157.843 153.216L138.141 140.68L143.198 137.029L138.141 133.798V112.648L142.633 115.537" stroke="white" stroke-miterlimit="10"/>
<path d="M162.125 149.38L174.177 156.501L195.711 142.435L191.812 140.253" stroke="white" stroke-miterlimit="10"/>
<path d="M179.772 148.024L170.328 154.227" stroke="white" stroke-miterlimit="10"/>
<path d="M143.198 131.478L138.141 128.255" stroke="white" stroke-miterlimit="10"/>
<path d="M143.198 122.447L138.141 119.224" stroke="white" stroke-miterlimit="10"/>
<path d="M165.047 101.421L169.326 98.4473L195.622 116.004L191.802 118.419" stroke="white" stroke-miterlimit="10"/>
<path d="M143.188 115.536V101.42L154.286 93.407V96.4713" stroke="white" stroke-miterlimit="10"/>
<path d="M226.483 344.644C251.619 344.644 271.997 333.839 271.997 320.51C271.997 307.181 251.619 296.375 226.483 296.375C201.346 296.375 180.969 307.181 180.969 320.51C180.969 333.839 201.346 344.644 226.483 344.644Z" fill="black"/>
<path d="M226.485 338.619C249.574 338.619 268.291 329.163 268.291 317.497C268.291 305.832 249.574 296.375 226.485 296.375C203.397 296.375 184.68 305.832 184.68 317.497C184.68 329.163 203.397 338.619 226.485 338.619Z" fill="#9FFFAE"/>
<path d="M220.311 314.433C220.311 314.433 208.844 310.328 205.669 309.662C202.493 308.996 193.297 310.803 202.546 318.43C211.795 326.056 218.849 327.954 223.202 330.578C227.554 333.203 233.216 329.618 233.615 326.598C234.014 323.577 232.01 315.966 232.01 315.966L220.311 314.433Z" fill="#FEFEFE"/>
<path d="M247.856 303.898C247.856 303.898 248.94 309.33 247.713 311.24C246.486 313.15 241.093 314.974 238.326 313.516C235.56 312.058 233.614 308.114 228.709 305.128C223.804 302.141 227.564 295.048 234.337 298.741C241.111 302.434 247.856 303.898 247.856 303.898Z" fill="#FEFEFE"/>
<path d="M246.145 202.869C246.145 202.869 249.707 209.621 248.784 219.233C247.86 228.844 245.216 231.499 245.216 231.499L244.129 258.167C244.129 258.167 247.668 264.529 247.229 276.77C246.789 289.011 247.847 303.898 247.847 303.898C247.847 303.898 246.385 308.33 242.389 307.939C238.393 307.548 235.384 304.196 235.384 304.196C235.384 304.196 233.865 263.952 228.393 256.043C222.92 248.133 226.388 205.71 226.388 205.71L246.145 202.869Z" fill="#0060A9"/>
<path d="M207.639 211.051C207.639 211.051 205.049 255.613 208.212 265.428C211.375 275.243 214.92 285.339 217.056 295.374C219.192 305.409 219.276 315.286 219.276 315.286C219.276 315.286 218.357 319.567 224.22 320.472C230.083 321.377 232.524 315.963 232.524 315.963C232.524 315.963 234.686 283.605 231.92 273.688C229.154 263.771 226.384 261.164 226.384 261.164C226.384 261.164 237.969 214.264 235.87 209.825C233.772 205.385 207.639 211.051 207.639 211.051Z" fill="#0060A9"/>
<path d="M210.504 145.808L201.856 131.28C201.856 131.28 201.056 126.869 204.986 125.118L208.916 123.367L223.586 139.794L210.504 145.808Z" fill="#0060A9"/>
<path d="M222.737 128.777C222.784 128.957 235.893 122.34 237.942 123.017C239.991 123.695 241.028 124.472 241.028 124.472C241.028 124.472 246.339 120.8 248.597 122.416C250.855 124.032 251.227 137.98 247.287 153.423C243.347 168.865 241.284 172.426 243.278 182.294C245.273 192.163 246.17 202.87 246.17 202.87C246.17 202.87 245.969 213.954 230.384 216.339C214.799 218.725 207.656 211.051 207.656 211.051C207.656 211.051 207.769 149.188 210.45 143.249C213.13 137.309 218.754 135.478 221.372 133.414C223.991 131.35 222.737 128.777 222.737 128.777Z" fill="#9AC0DC"/>
<path d="M211.931 104.26C211.931 104.26 211.73 107.977 211.931 109.525L212.13 111.082C212.13 111.082 211.345 113.055 212.13 116.992C212.915 120.929 212.491 122.514 216.643 123.062C220.795 123.61 222.227 121.634 223.13 124.929L224.028 128.224C224.028 128.224 233.907 126.721 234.193 126.608C234.48 126.495 236.759 112.45 234.193 108.268C231.628 104.085 218.514 98.4705 218.514 98.4705L211.931 104.26Z" fill="url(#paint43_linear_645_374)"/>
<path d="M211.002 93.0432C206.761 96.9123 206.505 103.733 210.286 108.644C214.068 113.556 220.791 115.211 220.83 112.963C220.868 110.715 222.969 107.321 224.584 109.191C226.199 111.06 222.166 116.378 226.083 119.725C230 123.072 237.221 119.267 238.551 115.862C239.881 112.457 241.469 99.9071 237.919 93.0432C234.37 86.1792 219.938 84.8911 211.002 93.0432Z" fill="black"/>
<path d="M211.002 93.0432C206.761 96.9123 206.505 103.733 210.286 108.644C214.068 113.556 220.791 115.211 220.83 112.963C220.868 110.715 222.969 107.321 224.584 109.191C226.199 111.06 222.166 116.378 226.083 119.725C230 123.072 237.221 119.267 238.551 115.862C239.881 112.457 241.469 99.9071 237.919 93.0432C234.37 86.1792 219.938 84.8911 211.002 93.0432Z" fill="black" fill-opacity="0.2"/>
<path d="M217.955 141.901C212.845 138.168 203.208 162.566 203.208 162.566L196.635 147.503C196.635 147.503 194.552 144.146 190.738 147.083L186.922 150.021C186.922 150.021 191.554 181.653 201.028 182.29C210.501 182.927 219.136 163.665 220.093 154.703C221.049 145.741 220.751 143.949 217.955 141.901Z" fill="#0060A9"/>
<path d="M195.024 145.808C195.024 145.808 195.075 138.65 193.61 134.818C192.145 130.986 191.127 129.646 191.127 129.646C191.127 129.646 189.874 128.702 190.247 131.571C190.619 134.439 190.441 135.773 190.441 135.773C190.441 135.773 185.374 133.222 184.524 128.951C183.673 124.679 183.326 124.175 182.54 124.459C181.754 124.744 182.769 130.659 182.769 130.659C182.769 130.659 182.288 126.283 181.285 126.055C180.283 125.827 181.019 132.196 181.019 132.358C181.019 132.519 179.473 128.759 179.473 128.759C179.473 128.759 177.706 129.064 179.473 135.094C181.24 141.124 181.128 140.88 184.291 142.852C187.453 144.823 188.156 149.042 188.156 149.042C188.156 149.042 191.467 146.082 195.024 145.808Z" fill="url(#paint44_linear_645_374)"/>
<path d="M202.077 128.332C202.077 128.332 198.203 128.754 196.158 123.01C194.114 117.266 193.98 115.863 193.98 115.863C193.98 115.863 195.478 114.181 196.612 116.995C197.746 119.809 199.255 119.518 199.244 117.318C199.232 115.118 188.611 105.809 191.741 105.809C194.871 105.809 198.399 113.142 199.244 112.804C200.088 112.466 194.766 107.029 196.621 106.687C198.475 106.344 202.077 114.016 202.077 114.016C202.077 114.016 200.276 108.397 202.077 109.19C203.878 109.984 208.579 124.122 208.579 124.122C208.579 124.122 203.974 125.268 202.077 128.332Z" fill="url(#paint45_linear_645_374)"/>
<path d="M214.034 111.628V117.254C214.034 117.39 214.009 117.525 213.959 117.648C213.91 117.772 213.837 117.882 213.746 117.972C213.656 118.061 213.549 118.127 213.433 118.165C213.318 118.203 213.196 118.213 213.077 118.193H213.067C209.733 117.594 206.546 115.271 206.338 112.453C206.13 109.634 205.876 104.627 205.963 103.423C206.05 102.219 207.886 99.604 207.886 99.604C207.886 99.604 207.854 103.108 209.499 105.813C209.499 105.813 211.252 107.268 212.649 108.467C213.08 108.838 213.429 109.317 213.669 109.865C213.909 110.413 214.034 111.017 214.034 111.628Z" fill="url(#paint46_linear_645_374)"/>
<path d="M210.961 114.969C210.911 115.207 210.811 115.426 210.668 115.609C210.526 115.793 210.345 115.933 210.143 116.019C209.941 116.105 209.723 116.133 209.509 116.102C209.295 116.071 209.091 115.98 208.915 115.839C207.971 115.113 207.183 114.157 206.61 113.041C204.398 108.618 205.027 104.54 207.469 100.296C205.416 104.241 204.998 108.081 207.068 112.22C207.639 113.335 208.421 114.292 209.359 115.024C209.594 115.215 209.879 115.313 210.168 115.303C210.458 115.293 210.737 115.176 210.961 114.969Z" fill="url(#paint47_linear_645_374)"/>
<path d="M211.014 111.455V114.634C211.014 114.747 211.002 114.86 210.977 114.969C210.753 115.172 210.477 115.288 210.19 115.298C209.903 115.308 209.62 115.212 209.386 115.024C208.448 114.292 207.666 113.334 207.095 112.22C205.025 108.081 205.443 104.241 207.496 100.296C207.532 100.234 207.564 100.171 207.601 100.108C207.692 99.9465 207.791 99.7849 207.887 99.6233C207.684 100.026 205.039 105.501 208.954 108.695C209.355 109.018 209.73 109.307 210.088 109.558C210.373 109.759 210.608 110.038 210.77 110.371C210.932 110.703 211.016 111.076 211.014 111.455Z" fill="#0060A9"/>
<path d="M213.242 111.137L221.581 110.358C221.581 110.358 221.11 112.217 220.839 112.963C220.671 113.449 220.581 113.965 220.571 114.486L213.947 114.694C213.947 114.694 214.254 111.95 213.242 111.137Z" fill="#0060A9"/>
<path d="M224.949 109.978L231.959 109.233L232.486 110.224L231.491 112.727L224.578 113.351L224.949 109.978Z" fill="#0060A9"/>
<path d="M207.625 99.0697C207.625 99.0697 216.728 89.4906 225.698 90.7431C234.329 91.9472 237.438 98.6624 237.438 98.6624L239.818 98.3036C239.818 98.3036 236.114 87.034 223.286 88.3382C215.667 89.1124 211.023 91.8938 209.04 94.5719C207.684 96.403 208.075 98.3036 207.625 99.0697Z" fill="#0060A9"/>
<path d="M239.701 97.4047C239.701 97.4047 235.52 96.1829 232.873 101.909C230.226 107.635 232.486 110.223 232.486 110.223C232.486 110.223 228.837 115.395 232.003 131.28C235.168 147.166 249.275 147.503 249.275 147.503C249.275 147.503 241.037 142.311 243.714 130.667C246.392 119.024 246.294 100.311 239.701 97.4047Z" fill="black"/>
<path d="M239.701 97.4047C239.701 97.4047 235.52 96.1829 232.873 101.909C230.226 107.635 232.486 110.223 232.486 110.223C232.486 110.223 228.837 115.395 232.003 131.28C235.168 147.166 249.275 147.503 249.275 147.503C249.275 147.503 241.037 142.311 243.714 130.667C246.392 119.024 246.294 100.311 239.701 97.4047Z" fill="black" fill-opacity="0.2"/>
<path opacity="0.5" d="M122.68 101.788L132.121 19.915L124.156 66.0265L122.68 101.788Z" fill="#0061A9"/>
<defs>
<linearGradient id="paint0_linear_645_374" x1="0.0078125" y1="109.493" x2="150.139" y2="109.493" gradientUnits="userSpaceOnUse">
<stop stop-color="#48B9FF"/>
<stop offset="1" stop-color="#2468FF"/>
</linearGradient>
<linearGradient id="paint1_linear_645_374" x1="96.3878" y1="23.9533" x2="110.913" y2="106.311" gradientUnits="userSpaceOnUse">
<stop stop-color="#F0F1F8"/>
<stop offset="1" stop-color="#C5CAEA"/>
</linearGradient>
<linearGradient id="paint2_linear_645_374" x1="106.445" y1="115.973" x2="86.4766" y2="115.973" gradientUnits="userSpaceOnUse">
<stop stop-color="#2A7BB6"/>
<stop offset="1" stop-color="#96F6AE"/>
</linearGradient>
<linearGradient id="paint3_linear_645_374" x1="76.7135" y1="97.8527" x2="82.5499" y2="130.941" gradientUnits="userSpaceOnUse">
<stop stop-color="#7B9AC8"/>
<stop offset="1" stop-color="#C5CAEA"/>
</linearGradient>
<linearGradient id="paint4_linear_645_374" x1="132.926" y1="97.2159" x2="84.8359" y2="97.2159" gradientUnits="userSpaceOnUse">
<stop stop-color="#2A7BB6"/>
<stop offset="1" stop-color="#96F6AE"/>
</linearGradient>
<linearGradient id="paint5_linear_645_374" x1="109.253" y1="61.727" x2="25.9766" y2="61.727" gradientUnits="userSpaceOnUse">
<stop stop-color="#2A7BB6"/>
<stop offset="1" stop-color="#96F6AE"/>
</linearGradient>
<linearGradient id="paint6_linear_645_374" x1="86.9648" y1="12.2943" x2="96.4933" y2="66.3098" gradientUnits="userSpaceOnUse">
<stop stop-color="#004B8E"/>
<stop offset="1" stop-color="#8FA7D1"/>
</linearGradient>
<linearGradient id="paint7_linear_645_374" x1="104.634" y1="57.515" x2="111.121" y2="94.2934" gradientUnits="userSpaceOnUse">
<stop stop-color="#004B8E"/>
<stop offset="1" stop-color="#8FA7D1"/>
</linearGradient>
<linearGradient id="paint8_linear_645_374" x1="126.142" y1="102.931" x2="114.281" y2="102.931" gradientUnits="userSpaceOnUse">
<stop stop-color="#004B8E"/>
<stop offset="1" stop-color="#4F7EB3"/>
</linearGradient>
<linearGradient id="paint9_linear_645_374" x1="124.632" y1="106.111" x2="125.35" y2="95.3837" gradientUnits="userSpaceOnUse">
<stop stop-color="#004B8E"/>
<stop offset="1" stop-color="#233960"/>
</linearGradient>
<linearGradient id="paint10_linear_645_374" x1="110.868" y1="118.925" x2="131.316" y2="107.911" gradientUnits="userSpaceOnUse">
<stop stop-color="#004B8E"/>
<stop offset="1" stop-color="#233960"/>
</linearGradient>
<linearGradient id="paint11_linear_645_374" x1="83.4949" y1="123.176" x2="71.6328" y2="123.176" gradientUnits="userSpaceOnUse">
<stop stop-color="#004B8E"/>
<stop offset="1" stop-color="#4F7EB3"/>
</linearGradient>
<linearGradient id="paint12_linear_645_374" x1="81.9584" y1="126.358" x2="82.6765" y2="115.63" gradientUnits="userSpaceOnUse">
<stop stop-color="#004B8E"/>
<stop offset="1" stop-color="#233960"/>
</linearGradient>
<linearGradient id="paint13_linear_645_374" x1="68.2209" y1="139.174" x2="88.6686" y2="128.16" gradientUnits="userSpaceOnUse">
<stop stop-color="#004B8E"/>
<stop offset="1" stop-color="#233960"/>
</linearGradient>
<linearGradient id="paint14_linear_645_374" x1="84.8374" y1="101.828" x2="25.9766" y2="101.828" gradientUnits="userSpaceOnUse">
<stop stop-color="#2A7BB6"/>
<stop offset="1" stop-color="#96F6AE"/>
</linearGradient>
<linearGradient id="paint15_linear_645_374" x1="51.4689" y1="56.7223" x2="59.464" y2="102.054" gradientUnits="userSpaceOnUse">
<stop stop-color="#004B8E"/>
<stop offset="1" stop-color="#8FA7D1"/>
</linearGradient>
<linearGradient id="paint16_linear_645_374" x1="31.7656" y1="95.8415" x2="43.6277" y2="95.8415" gradientUnits="userSpaceOnUse">
<stop stop-color="#004B8E"/>
<stop offset="1" stop-color="#4F7EB3"/>
</linearGradient>
<linearGradient id="paint17_linear_645_374" x1="33.2761" y1="99.0222" x2="32.558" y2="88.2946" gradientUnits="userSpaceOnUse">
<stop stop-color="#004B8E"/>
<stop offset="1" stop-color="#233960"/>
</linearGradient>
<linearGradient id="paint18_linear_645_374" x1="47.0396" y1="111.836" x2="26.5919" y2="100.822" gradientUnits="userSpaceOnUse">
<stop stop-color="#004B8E"/>
<stop offset="1" stop-color="#233960"/>
</linearGradient>
<linearGradient id="paint19_linear_645_374" x1="52.272" y1="107.339" x2="64.1341" y2="107.339" gradientUnits="userSpaceOnUse">
<stop stop-color="#004B8E"/>
<stop offset="1" stop-color="#4F7EB3"/>
</linearGradient>
<linearGradient id="paint20_linear_645_374" x1="53.7825" y1="110.521" x2="53.0644" y2="99.7933" gradientUnits="userSpaceOnUse">
<stop stop-color="#004B8E"/>
<stop offset="1" stop-color="#233960"/>
</linearGradient>
<linearGradient id="paint21_linear_645_374" x1="67.546" y1="123.336" x2="47.0997" y2="112.323" gradientUnits="userSpaceOnUse">
<stop stop-color="#004B8E"/>
<stop offset="1" stop-color="#233960"/>
</linearGradient>
<linearGradient id="paint22_linear_645_374" x1="175.195" y1="97.3338" x2="181.798" y2="134.771" gradientUnits="userSpaceOnUse">
<stop stop-color="#F0F1F8"/>
<stop offset="1" stop-color="#C5CAEA"/>
</linearGradient>
<linearGradient id="paint23_linear_645_374" x1="175.226" y1="144.814" x2="175.226" y2="132.626" gradientUnits="userSpaceOnUse">
<stop stop-color="#7B9AC8"/>
<stop offset="1" stop-color="#C5CAEA"/>
</linearGradient>
<linearGradient id="paint24_linear_645_374" x1="166.255" y1="130.925" x2="168.906" y2="145.964" gradientUnits="userSpaceOnUse">
<stop stop-color="#7B9AC8"/>
<stop offset="1" stop-color="#C5CAEA"/>
</linearGradient>
<linearGradient id="paint25_linear_645_374" x1="178.678" y1="111.838" x2="183.918" y2="141.542" gradientUnits="userSpaceOnUse">
<stop stop-color="#F0F1F8"/>
<stop offset="1" stop-color="#C5CAEA"/>
</linearGradient>
<linearGradient id="paint26_linear_645_374" x1="181.042" y1="114.503" x2="143.188" y2="114.503" gradientUnits="userSpaceOnUse">
<stop stop-color="#2A7BB6"/>
<stop offset="1" stop-color="#96F6AE"/>
</linearGradient>
<linearGradient id="paint27_linear_645_374" x1="170.915" y1="92.0327" x2="175.245" y2="116.587" gradientUnits="userSpaceOnUse">
<stop stop-color="#004B8E"/>
<stop offset="1" stop-color="#8FA7D1"/>
</linearGradient>
<linearGradient id="paint28_linear_645_374" x1="178.936" y1="112.59" x2="181.885" y2="129.307" gradientUnits="userSpaceOnUse">
<stop stop-color="#004B8E"/>
<stop offset="1" stop-color="#8FA7D1"/>
</linearGradient>
<linearGradient id="paint29_linear_645_374" x1="188.712" y1="133.234" x2="183.32" y2="133.234" gradientUnits="userSpaceOnUse">
<stop stop-color="#004B8E"/>
<stop offset="1" stop-color="#4F7EB3"/>
</linearGradient>
<linearGradient id="paint30_linear_645_374" x1="188.043" y1="134.679" x2="188.369" y2="129.802" gradientUnits="userSpaceOnUse">
<stop stop-color="#004B8E"/>
<stop offset="1" stop-color="#233960"/>
</linearGradient>
<linearGradient id="paint31_linear_645_374" x1="181.77" y1="140.506" x2="191.065" y2="135.499" gradientUnits="userSpaceOnUse">
<stop stop-color="#004B8E"/>
<stop offset="1" stop-color="#233960"/>
</linearGradient>
<linearGradient id="paint32_linear_645_374" x1="169.322" y1="142.434" x2="163.93" y2="142.434" gradientUnits="userSpaceOnUse">
<stop stop-color="#004B8E"/>
<stop offset="1" stop-color="#4F7EB3"/>
</linearGradient>
<linearGradient id="paint33_linear_645_374" x1="168.643" y1="143.881" x2="168.971" y2="139.005" gradientUnits="userSpaceOnUse">
<stop stop-color="#004B8E"/>
<stop offset="1" stop-color="#233960"/>
</linearGradient>
<linearGradient id="paint34_linear_645_374" x1="162.379" y1="149.706" x2="171.673" y2="144.7" gradientUnits="userSpaceOnUse">
<stop stop-color="#004B8E"/>
<stop offset="1" stop-color="#233960"/>
</linearGradient>
<linearGradient id="paint35_linear_645_374" x1="153.376" y1="111.74" x2="159.12" y2="144.299" gradientUnits="userSpaceOnUse">
<stop stop-color="#7B9AC8"/>
<stop offset="1" stop-color="#C5CAEA"/>
</linearGradient>
<linearGradient id="paint36_linear_645_374" x1="154.775" y1="112.228" x2="158.411" y2="132.834" gradientUnits="userSpaceOnUse">
<stop stop-color="#004B8E"/>
<stop offset="1" stop-color="#8FA7D1"/>
</linearGradient>
<linearGradient id="paint37_linear_645_374" x1="145.805" y1="130.012" x2="151.197" y2="130.012" gradientUnits="userSpaceOnUse">
<stop stop-color="#004B8E"/>
<stop offset="1" stop-color="#4F7EB3"/>
</linearGradient>
<linearGradient id="paint38_linear_645_374" x1="146.492" y1="131.458" x2="146.164" y2="126.581" gradientUnits="userSpaceOnUse">
<stop stop-color="#004B8E"/>
<stop offset="1" stop-color="#233960"/>
</linearGradient>
<linearGradient id="paint39_linear_645_374" x1="152.749" y1="137.282" x2="143.454" y2="132.275" gradientUnits="userSpaceOnUse">
<stop stop-color="#004B8E"/>
<stop offset="1" stop-color="#233960"/>
</linearGradient>
<linearGradient id="paint40_linear_645_374" x1="155.141" y1="135.236" x2="160.533" y2="135.236" gradientUnits="userSpaceOnUse">
<stop stop-color="#004B8E"/>
<stop offset="1" stop-color="#4F7EB3"/>
</linearGradient>
<linearGradient id="paint41_linear_645_374" x1="155.828" y1="136.683" x2="155.502" y2="131.806" gradientUnits="userSpaceOnUse">
<stop stop-color="#004B8E"/>
<stop offset="1" stop-color="#233960"/>
</linearGradient>
<linearGradient id="paint42_linear_645_374" x1="162.085" y1="142.508" x2="152.79" y2="137.503" gradientUnits="userSpaceOnUse">
<stop stop-color="#004B8E"/>
<stop offset="1" stop-color="#233960"/>
</linearGradient>
<linearGradient id="paint43_linear_645_374" x1="222.091" y1="124.764" x2="225.751" y2="100.319" gradientUnits="userSpaceOnUse">
<stop stop-color="#FFC7C7"/>
<stop offset="1" stop-color="#FFA4A4"/>
</linearGradient>
<linearGradient id="paint44_linear_645_374" x1="185.918" y1="146.102" x2="188.94" y2="125.934" gradientUnits="userSpaceOnUse">
<stop stop-color="#FFC7C7"/>
<stop offset="1" stop-color="#FFA4A4"/>
</linearGradient>
<linearGradient id="paint45_linear_645_374" x1="194.145" y1="120.78" x2="203.682" y2="113.342" gradientUnits="userSpaceOnUse">
<stop stop-color="#FFC7C7"/>
<stop offset="1" stop-color="#FFA4A4"/>
</linearGradient>
<linearGradient id="paint46_linear_645_374" x1="205.95" y1="108.904" x2="214.034" y2="108.904" gradientUnits="userSpaceOnUse">
<stop stop-color="#F0F1F8"/>
<stop offset="1" stop-color="#C5CAEA"/>
</linearGradient>
<linearGradient id="paint47_linear_645_374" x1="205.25" y1="108.206" x2="210.961" y2="108.206" gradientUnits="userSpaceOnUse">
<stop stop-color="#261589"/>
<stop offset="1" stop-color="#000D56"/>
</linearGradient>
</defs>
</svg>
